<mxfile host="app.diagrams.net" agent="Mozilla/5.0 (Windows NT 10.0; Win64; x64) AppleWebKit/537.36 (KHTML, like Gecko) Chrome/129.0.0.0 Safari/537.36" version="24.7.17" pages="2">
  <diagram name="第 1 页" id="g6XzWFwklPrxWe_cIUzv">
    <mxGraphModel dx="1621" dy="1159" grid="1" gridSize="10" guides="1" tooltips="1" connect="1" arrows="1" fold="1" page="0" pageScale="1" pageWidth="827" pageHeight="1169" math="0" shadow="0">
      <root>
        <mxCell id="0" />
        <mxCell id="1" parent="0" />
        <mxCell id="2dYMfLZ3kAs2adzHnIS8-9" style="edgeStyle=orthogonalEdgeStyle;rounded=0;orthogonalLoop=1;jettySize=auto;html=1;entryX=0.5;entryY=0;entryDx=0;entryDy=0;" parent="1" source="2dYMfLZ3kAs2adzHnIS8-1" target="2dYMfLZ3kAs2adzHnIS8-6" edge="1">
          <mxGeometry relative="1" as="geometry" />
        </mxCell>
        <mxCell id="2dYMfLZ3kAs2adzHnIS8-1" value="IDLE" style="rounded=0;whiteSpace=wrap;html=1;" parent="1" vertex="1">
          <mxGeometry x="-40" y="-80" width="120" height="40" as="geometry" />
        </mxCell>
        <mxCell id="2dYMfLZ3kAs2adzHnIS8-10" style="edgeStyle=orthogonalEdgeStyle;rounded=0;orthogonalLoop=1;jettySize=auto;html=1;entryX=0.5;entryY=0;entryDx=0;entryDy=0;" parent="1" source="2dYMfLZ3kAs2adzHnIS8-2" target="2dYMfLZ3kAs2adzHnIS8-17" edge="1">
          <mxGeometry relative="1" as="geometry" />
        </mxCell>
        <mxCell id="2dYMfLZ3kAs2adzHnIS8-2" value="uart_trig" style="rounded=0;whiteSpace=wrap;html=1;" parent="1" vertex="1">
          <mxGeometry x="-40" y="80" width="120" height="40" as="geometry" />
        </mxCell>
        <mxCell id="2dYMfLZ3kAs2adzHnIS8-11" style="edgeStyle=orthogonalEdgeStyle;rounded=0;orthogonalLoop=1;jettySize=auto;html=1;entryX=0.5;entryY=0;entryDx=0;entryDy=0;" parent="1" source="2dYMfLZ3kAs2adzHnIS8-3" target="2dYMfLZ3kAs2adzHnIS8-5" edge="1">
          <mxGeometry relative="1" as="geometry" />
        </mxCell>
        <mxCell id="2dYMfLZ3kAs2adzHnIS8-3" value="uart_exe&lt;span style=&quot;color: rgba(0, 0, 0, 0); font-family: monospace; font-size: 0px; text-align: start; text-wrap: nowrap;&quot;&gt;%3CmxGraphModel%3E%3Croot%3E%3CmxCell%20id%3D%220%22%2F%3E%3CmxCell%20id%3D%221%22%20parent%3D%220%22%2F%3E%3CmxCell%20id%3D%222%22%20value%3D%22uart_trig%22%20style%3D%22rounded%3D0%3BwhiteSpace%3Dwrap%3Bhtml%3D1%3B%22%20vertex%3D%221%22%20parent%3D%221%22%3E%3CmxGeometry%20x%3D%22-40%22%20width%3D%22120%22%20height%3D%2240%22%20as%3D%22geometry%22%2F%3E%3C%2FmxCell%3E%3C%2Froot%3E%3C%2FmxGraphModel%3E&lt;/span&gt;" style="rounded=0;whiteSpace=wrap;html=1;" parent="1" vertex="1">
          <mxGeometry x="-40" y="240" width="120" height="40" as="geometry" />
        </mxCell>
        <mxCell id="2dYMfLZ3kAs2adzHnIS8-4" value="interrupt_write" style="rounded=0;whiteSpace=wrap;html=1;" parent="1" vertex="1">
          <mxGeometry x="-40" y="400" width="120" height="40" as="geometry" />
        </mxCell>
        <mxCell id="2dYMfLZ3kAs2adzHnIS8-12" style="edgeStyle=orthogonalEdgeStyle;rounded=0;orthogonalLoop=1;jettySize=auto;html=1;entryX=0.5;entryY=0;entryDx=0;entryDy=0;" parent="1" source="2dYMfLZ3kAs2adzHnIS8-5" target="2dYMfLZ3kAs2adzHnIS8-4" edge="1">
          <mxGeometry relative="1" as="geometry" />
        </mxCell>
        <mxCell id="2dYMfLZ3kAs2adzHnIS8-5" value="Interrupt&lt;div&gt;Enable&lt;/div&gt;" style="rhombus;whiteSpace=wrap;html=1;" parent="1" vertex="1">
          <mxGeometry x="-40" y="320" width="120" height="40" as="geometry" />
        </mxCell>
        <mxCell id="2dYMfLZ3kAs2adzHnIS8-8" style="edgeStyle=orthogonalEdgeStyle;rounded=0;orthogonalLoop=1;jettySize=auto;html=1;entryX=0.5;entryY=0;entryDx=0;entryDy=0;" parent="1" source="2dYMfLZ3kAs2adzHnIS8-6" target="2dYMfLZ3kAs2adzHnIS8-2" edge="1">
          <mxGeometry relative="1" as="geometry" />
        </mxCell>
        <mxCell id="2dYMfLZ3kAs2adzHnIS8-6" value="uart&lt;div&gt;enable&lt;/div&gt;" style="rhombus;whiteSpace=wrap;html=1;" parent="1" vertex="1">
          <mxGeometry x="-40" width="120" height="40" as="geometry" />
        </mxCell>
        <mxCell id="2dYMfLZ3kAs2adzHnIS8-14" value="" style="endArrow=classic;html=1;rounded=0;exitX=1;exitY=0.5;exitDx=0;exitDy=0;entryX=0.5;entryY=0;entryDx=0;entryDy=0;" parent="1" source="2dYMfLZ3kAs2adzHnIS8-4" target="2dYMfLZ3kAs2adzHnIS8-1" edge="1">
          <mxGeometry width="50" height="50" relative="1" as="geometry">
            <mxPoint x="110" y="300" as="sourcePoint" />
            <mxPoint x="160" y="250" as="targetPoint" />
            <Array as="points">
              <mxPoint x="120" y="420" />
              <mxPoint x="120" y="-120" />
              <mxPoint x="20" y="-120" />
            </Array>
          </mxGeometry>
        </mxCell>
        <mxCell id="2dYMfLZ3kAs2adzHnIS8-15" value="" style="endArrow=classic;html=1;rounded=0;exitX=0;exitY=0.5;exitDx=0;exitDy=0;" parent="1" source="2dYMfLZ3kAs2adzHnIS8-5" edge="1">
          <mxGeometry width="50" height="50" relative="1" as="geometry">
            <mxPoint x="-130" y="250" as="sourcePoint" />
            <mxPoint x="20" y="-120" as="targetPoint" />
            <Array as="points">
              <mxPoint x="-80" y="340" />
              <mxPoint x="-80" y="-120" />
            </Array>
          </mxGeometry>
        </mxCell>
        <mxCell id="2dYMfLZ3kAs2adzHnIS8-16" value="" style="endArrow=classic;html=1;rounded=0;exitX=0;exitY=0.5;exitDx=0;exitDy=0;" parent="1" source="2dYMfLZ3kAs2adzHnIS8-6" edge="1">
          <mxGeometry width="50" height="50" relative="1" as="geometry">
            <mxPoint x="-210" y="80" as="sourcePoint" />
            <mxPoint x="-80" y="20" as="targetPoint" />
          </mxGeometry>
        </mxCell>
        <mxCell id="2dYMfLZ3kAs2adzHnIS8-19" style="edgeStyle=orthogonalEdgeStyle;rounded=0;orthogonalLoop=1;jettySize=auto;html=1;exitX=0.5;exitY=1;exitDx=0;exitDy=0;entryX=0.5;entryY=0;entryDx=0;entryDy=0;" parent="1" source="2dYMfLZ3kAs2adzHnIS8-17" target="2dYMfLZ3kAs2adzHnIS8-3" edge="1">
          <mxGeometry relative="1" as="geometry" />
        </mxCell>
        <mxCell id="2dYMfLZ3kAs2adzHnIS8-17" value="tranfer start" style="rhombus;whiteSpace=wrap;html=1;" parent="1" vertex="1">
          <mxGeometry x="-40" y="160" width="120" height="40" as="geometry" />
        </mxCell>
        <mxCell id="2dYMfLZ3kAs2adzHnIS8-18" value="" style="endArrow=classic;html=1;rounded=0;exitX=0;exitY=0.5;exitDx=0;exitDy=0;" parent="1" source="2dYMfLZ3kAs2adzHnIS8-17" edge="1">
          <mxGeometry width="50" height="50" relative="1" as="geometry">
            <mxPoint x="-70" y="110" as="sourcePoint" />
            <mxPoint x="20" y="60" as="targetPoint" />
            <Array as="points">
              <mxPoint x="-60" y="180" />
              <mxPoint x="-60" y="60" />
            </Array>
          </mxGeometry>
        </mxCell>
        <mxCell id="2dYMfLZ3kAs2adzHnIS8-21" value="0" style="text;html=1;align=center;verticalAlign=middle;whiteSpace=wrap;rounded=0;" parent="1" vertex="1">
          <mxGeometry x="-60" y="160" width="20" height="20" as="geometry" />
        </mxCell>
        <mxCell id="2dYMfLZ3kAs2adzHnIS8-23" value="1" style="text;html=1;align=center;verticalAlign=middle;whiteSpace=wrap;rounded=0;" parent="1" vertex="1">
          <mxGeometry x="20" y="200" width="20" height="20" as="geometry" />
        </mxCell>
        <mxCell id="2dYMfLZ3kAs2adzHnIS8-24" value="1" style="text;html=1;align=center;verticalAlign=middle;whiteSpace=wrap;rounded=0;" parent="1" vertex="1">
          <mxGeometry x="20" y="360" width="20" height="20" as="geometry" />
        </mxCell>
        <mxCell id="2dYMfLZ3kAs2adzHnIS8-25" value="1" style="text;html=1;align=center;verticalAlign=middle;whiteSpace=wrap;rounded=0;" parent="1" vertex="1">
          <mxGeometry x="20" y="40" width="20" height="20" as="geometry" />
        </mxCell>
        <mxCell id="2dYMfLZ3kAs2adzHnIS8-26" value="0" style="text;html=1;align=center;verticalAlign=middle;whiteSpace=wrap;rounded=0;" parent="1" vertex="1">
          <mxGeometry x="-60" width="20" height="20" as="geometry" />
        </mxCell>
        <mxCell id="2dYMfLZ3kAs2adzHnIS8-27" value="0" style="text;html=1;align=center;verticalAlign=middle;whiteSpace=wrap;rounded=0;" parent="1" vertex="1">
          <mxGeometry x="-60" y="320" width="20" height="20" as="geometry" />
        </mxCell>
        <mxCell id="2dYMfLZ3kAs2adzHnIS8-40" value="1" style="text;html=1;align=center;verticalAlign=middle;whiteSpace=wrap;rounded=0;" parent="1" vertex="1">
          <mxGeometry x="30" y="50" width="20" height="20" as="geometry" />
        </mxCell>
      </root>
    </mxGraphModel>
  </diagram>
  <diagram id="ZxYoxiJjGsulgWN9n86t" name="第 2 页">
    <mxGraphModel dx="1163" dy="1123" grid="1" gridSize="10" guides="1" tooltips="1" connect="1" arrows="1" fold="1" page="0" pageScale="1" pageWidth="827" pageHeight="1169" math="0" shadow="0">
      <root>
        <mxCell id="0" />
        <mxCell id="1" parent="0" />
        <mxCell id="gqWM6ZxJxSTwI-8c8_PA-1" style="edgeStyle=orthogonalEdgeStyle;rounded=0;orthogonalLoop=1;jettySize=auto;html=1;entryX=0.5;entryY=0;entryDx=0;entryDy=0;" edge="1" parent="1" source="gqWM6ZxJxSTwI-8c8_PA-2" target="gqWM6ZxJxSTwI-8c8_PA-4">
          <mxGeometry relative="1" as="geometry" />
        </mxCell>
        <mxCell id="gqWM6ZxJxSTwI-8c8_PA-2" value="Transfer IDLE" style="rounded=0;whiteSpace=wrap;html=1;" vertex="1" parent="1">
          <mxGeometry x="240" y="-20" width="120" height="40" as="geometry" />
        </mxCell>
        <mxCell id="gqWM6ZxJxSTwI-8c8_PA-3" style="edgeStyle=orthogonalEdgeStyle;rounded=0;orthogonalLoop=1;jettySize=auto;html=1;" edge="1" parent="1" source="gqWM6ZxJxSTwI-8c8_PA-4" target="gqWM6ZxJxSTwI-8c8_PA-6">
          <mxGeometry relative="1" as="geometry" />
        </mxCell>
        <mxCell id="gqWM6ZxJxSTwI-8c8_PA-4" value="send req" style="rhombus;whiteSpace=wrap;html=1;" vertex="1" parent="1">
          <mxGeometry x="240" y="60" width="120" height="40" as="geometry" />
        </mxCell>
        <mxCell id="gqWM6ZxJxSTwI-8c8_PA-5" style="edgeStyle=orthogonalEdgeStyle;rounded=0;orthogonalLoop=1;jettySize=auto;html=1;entryX=0.5;entryY=0;entryDx=0;entryDy=0;" edge="1" parent="1" source="gqWM6ZxJxSTwI-8c8_PA-6" target="gqWM6ZxJxSTwI-8c8_PA-8">
          <mxGeometry relative="1" as="geometry" />
        </mxCell>
        <mxCell id="gqWM6ZxJxSTwI-8c8_PA-6" value="Transfer IDLE" style="rounded=0;whiteSpace=wrap;html=1;" vertex="1" parent="1">
          <mxGeometry x="240" y="140" width="120" height="40" as="geometry" />
        </mxCell>
        <mxCell id="gqWM6ZxJxSTwI-8c8_PA-7" style="edgeStyle=orthogonalEdgeStyle;rounded=0;orthogonalLoop=1;jettySize=auto;html=1;entryX=0.5;entryY=0;entryDx=0;entryDy=0;" edge="1" parent="1" source="gqWM6ZxJxSTwI-8c8_PA-8" target="gqWM6ZxJxSTwI-8c8_PA-9">
          <mxGeometry relative="1" as="geometry" />
        </mxCell>
        <mxCell id="gqWM6ZxJxSTwI-8c8_PA-8" value="Transfer IDLE" style="rounded=0;whiteSpace=wrap;html=1;" vertex="1" parent="1">
          <mxGeometry x="240" y="220" width="120" height="40" as="geometry" />
        </mxCell>
        <mxCell id="gqWM6ZxJxSTwI-8c8_PA-9" value="Transfer IDLE" style="rounded=0;whiteSpace=wrap;html=1;" vertex="1" parent="1">
          <mxGeometry x="240" y="300" width="120" height="40" as="geometry" />
        </mxCell>
        <mxCell id="gqWM6ZxJxSTwI-8c8_PA-10" value="" style="endArrow=classic;html=1;rounded=0;exitX=0;exitY=0.5;exitDx=0;exitDy=0;" edge="1" parent="1">
          <mxGeometry width="50" height="50" relative="1" as="geometry">
            <mxPoint x="240" y="80" as="sourcePoint" />
            <mxPoint x="300" y="-60" as="targetPoint" />
            <Array as="points">
              <mxPoint x="220" y="80" />
              <mxPoint x="220" y="-60" />
            </Array>
          </mxGeometry>
        </mxCell>
        <mxCell id="gqWM6ZxJxSTwI-8c8_PA-11" value="" style="endArrow=classic;html=1;rounded=0;exitX=0.5;exitY=1;exitDx=0;exitDy=0;entryX=0.5;entryY=0;entryDx=0;entryDy=0;" edge="1" parent="1" source="gqWM6ZxJxSTwI-8c8_PA-9" target="gqWM6ZxJxSTwI-8c8_PA-2">
          <mxGeometry width="50" height="50" relative="1" as="geometry">
            <mxPoint x="350" y="400" as="sourcePoint" />
            <mxPoint x="400" y="350" as="targetPoint" />
            <Array as="points">
              <mxPoint x="300" y="360" />
              <mxPoint x="380" y="360" />
              <mxPoint x="380" y="-60" />
              <mxPoint x="300" y="-60" />
            </Array>
          </mxGeometry>
        </mxCell>
      </root>
    </mxGraphModel>
  </diagram>
</mxfile>
